<svg width="1024" height="792" xmlns="http://www.w3.org/2000/svg" xmlns:xlink="http://www.w3.org/1999/xlink" xml:space="preserve" overflow="hidden"><g transform="translate(-1155 -330)"><path d="M1155 379.5C1155 352.162 1177.16 330 1204.5 330 1231.84 330 1254 352.162 1254 379.5 1254 406.838 1231.84 429 1204.5 429 1177.16 429 1155 406.838 1155 379.5Z" fill-rule="evenodd"/><path d="M1271 379.5C1271 352.162 1293.16 330 1320.5 330 1347.84 330 1370 352.162 1370 379.5 1370 406.838 1347.84 429 1320.5 429 1293.16 429 1271 406.838 1271 379.5Z" fill-rule="evenodd"/><path d="M1386 379.5C1386 352.162 1408.16 330 1435.5 330 1462.84 330 1485 352.162 1485 379.5 1485 406.838 1462.84 429 1435.5 429 1408.16 429 1386 406.838 1386 379.5Z" fill-rule="evenodd"/><path d="M1502 379.5C1502 352.162 1524.16 330 1551.5 330 1578.84 330 1601 352.162 1601 379.5 1601 406.838 1578.84 429 1551.5 429 1524.16 429 1502 406.838 1502 379.5Z" fill-rule="evenodd"/><path d="M1617 379.5C1617 352.162 1639.16 330 1666.5 330 1693.84 330 1716 352.162 1716 379.5 1716 406.838 1693.84 429 1666.5 429 1639.16 429 1617 406.838 1617 379.5Z" fill-rule="evenodd"/><path d="M1733 379.5C1733 352.162 1755.16 330 1782.5 330 1809.84 330 1832 352.162 1832 379.5 1832 406.838 1809.84 429 1782.5 429 1755.16 429 1733 406.838 1733 379.5Z" fill-rule="evenodd"/><path d="M1848 379.5C1848 352.162 1870.16 330 1897.5 330 1924.84 330 1947 352.162 1947 379.5 1947 406.838 1924.84 429 1897.5 429 1870.16 429 1848 406.838 1848 379.5Z" fill-rule="evenodd"/><path d="M1155 495.5C1155 468.162 1177.16 446 1204.5 446 1231.84 446 1254 468.162 1254 495.5 1254 522.838 1231.84 545 1204.5 545 1177.16 545 1155 522.838 1155 495.5Z" fill-rule="evenodd"/><path d="M1271 495.5C1271 468.162 1293.16 446 1320.5 446 1347.84 446 1370 468.162 1370 495.5 1370 522.838 1347.84 545 1320.5 545 1293.16 545 1271 522.838 1271 495.5Z" fill-rule="evenodd"/><path d="M1386 495.5C1386 468.162 1408.16 446 1435.5 446 1462.84 446 1485 468.162 1485 495.5 1485 522.838 1462.84 545 1435.5 545 1408.16 545 1386 522.838 1386 495.5Z" fill-rule="evenodd"/><path d="M1502 495.5C1502 468.162 1524.16 446 1551.5 446 1578.84 446 1601 468.162 1601 495.5 1601 522.838 1578.84 545 1551.5 545 1524.16 545 1502 522.838 1502 495.5Z" fill-rule="evenodd"/><path d="M1617 495.5C1617 468.162 1639.16 446 1666.5 446 1693.84 446 1716 468.162 1716 495.5 1716 522.838 1693.84 545 1666.5 545 1639.16 545 1617 522.838 1617 495.5Z" fill-rule="evenodd"/><path d="M1733 495.5C1733 468.162 1755.16 446 1782.5 446 1809.84 446 1832 468.162 1832 495.5 1832 522.838 1809.84 545 1782.5 545 1755.16 545 1733 522.838 1733 495.5Z" fill-rule="evenodd"/><path d="M1848 495.5C1848 468.162 1870.16 446 1897.5 446 1924.84 446 1947 468.162 1947 495.5 1947 522.838 1924.84 545 1897.5 545 1870.16 545 1848 522.838 1848 495.5Z" fill-rule="evenodd"/><path d="M1155 610.5C1155 583.162 1177.16 561 1204.5 561 1231.84 561 1254 583.162 1254 610.5 1254 637.838 1231.84 660 1204.5 660 1177.16 660 1155 637.838 1155 610.5Z" fill-rule="evenodd"/><path d="M1271 610.5C1271 583.162 1293.16 561 1320.5 561 1347.84 561 1370 583.162 1370 610.5 1370 637.838 1347.84 660 1320.5 660 1293.16 660 1271 637.838 1271 610.5Z" fill-rule="evenodd"/><path d="M1386 610.5C1386 583.162 1408.16 561 1435.5 561 1462.84 561 1485 583.162 1485 610.5 1485 637.838 1462.84 660 1435.5 660 1408.16 660 1386 637.838 1386 610.5Z" fill-rule="evenodd"/><path d="M1502 610.5C1502 583.162 1524.16 561 1551.5 561 1578.84 561 1601 583.162 1601 610.5 1601 637.838 1578.84 660 1551.5 660 1524.16 660 1502 637.838 1502 610.5Z" fill-rule="evenodd"/><path d="M1617 610.5C1617 583.162 1639.16 561 1666.5 561 1693.84 561 1716 583.162 1716 610.5 1716 637.838 1693.84 660 1666.5 660 1639.16 660 1617 637.838 1617 610.5Z" fill-rule="evenodd"/><path d="M1733 610.5C1733 583.162 1755.16 561 1782.5 561 1809.84 561 1832 583.162 1832 610.5 1832 637.838 1809.84 660 1782.5 660 1755.16 660 1733 637.838 1733 610.5Z" fill="#C00000" fill-rule="evenodd"/><path d="M1848 610.5C1848 583.162 1870.16 561 1897.5 561 1924.84 561 1947 583.162 1947 610.5 1947 637.838 1924.84 660 1897.5 660 1870.16 660 1848 637.838 1848 610.5Z" fill-rule="evenodd"/><path d="M1155 726.5C1155 699.162 1177.16 677 1204.5 677 1231.84 677 1254 699.162 1254 726.5 1254 753.838 1231.84 776 1204.5 776 1177.16 776 1155 753.838 1155 726.5Z" fill-rule="evenodd"/><path d="M1271 726.5C1271 699.162 1293.16 677 1320.5 677 1347.84 677 1370 699.162 1370 726.5 1370 753.838 1347.84 776 1320.5 776 1293.16 776 1271 753.838 1271 726.5Z" fill-rule="evenodd"/><path d="M1386 726.5C1386 699.162 1408.16 677 1435.5 677 1462.84 677 1485 699.162 1485 726.5 1485 753.838 1462.84 776 1435.5 776 1408.16 776 1386 753.838 1386 726.5Z" fill-rule="evenodd"/><path d="M1502 726.5C1502 699.162 1524.16 677 1551.5 677 1578.84 677 1601 699.162 1601 726.5 1601 753.838 1578.84 776 1551.5 776 1524.16 776 1502 753.838 1502 726.5Z" fill-rule="evenodd"/><path d="M1617 726.5C1617 699.162 1639.16 677 1666.5 677 1693.84 677 1716 699.162 1716 726.5 1716 753.838 1693.84 776 1666.5 776 1639.16 776 1617 753.838 1617 726.5Z" fill-rule="evenodd"/><path d="M1733 726.5C1733 699.162 1755.16 677 1782.5 677 1809.84 677 1832 699.162 1832 726.5 1832 753.838 1809.84 776 1782.5 776 1755.16 776 1733 753.838 1733 726.5Z" fill-rule="evenodd"/><path d="M1848 726.5C1848 699.162 1870.16 677 1897.5 677 1924.84 677 1947 699.162 1947 726.5 1947 753.838 1924.84 776 1897.5 776 1870.16 776 1848 753.838 1848 726.5Z" fill-rule="evenodd"/><path d="M1155 841.5C1155 814.162 1177.16 792 1204.5 792 1231.84 792 1254 814.162 1254 841.5 1254 868.838 1231.84 891 1204.5 891 1177.16 891 1155 868.838 1155 841.5Z" fill-rule="evenodd"/><path d="M1271 841.5C1271 814.162 1293.16 792 1320.5 792 1347.84 792 1370 814.162 1370 841.5 1370 868.838 1347.84 891 1320.5 891 1293.16 891 1271 868.838 1271 841.5Z" fill-rule="evenodd"/><path d="M1502 841.5C1502 814.162 1524.16 792 1551.5 792 1578.84 792 1601 814.162 1601 841.5 1601 868.838 1578.84 891 1551.5 891 1524.16 891 1502 868.838 1502 841.5Z" fill-rule="evenodd"/><path d="M1386 841.5C1386 814.162 1408.16 792 1435.5 792 1462.84 792 1485 814.162 1485 841.5 1485 868.838 1462.84 891 1435.5 891 1408.16 891 1386 868.838 1386 841.5Z" fill-rule="evenodd"/><path d="M1617 841.5C1617 814.162 1639.16 792 1666.5 792 1693.84 792 1716 814.162 1716 841.5 1716 868.838 1693.84 891 1666.5 891 1639.16 891 1617 868.838 1617 841.5Z" fill-rule="evenodd"/><path d="M1733 841.5C1733 814.162 1755.16 792 1782.5 792 1809.84 792 1832 814.162 1832 841.5 1832 868.838 1809.84 891 1782.5 891 1755.16 891 1733 868.838 1733 841.5Z" fill-rule="evenodd"/><path d="M1848 841.5C1848 814.162 1870.16 792 1897.5 792 1924.84 792 1947 814.162 1947 841.5 1947 868.838 1924.84 891 1897.5 891 1870.16 891 1848 868.838 1848 841.5Z" fill-rule="evenodd"/><path d="M1155 957.5C1155 930.162 1177.16 908 1204.5 908 1231.84 908 1254 930.162 1254 957.5 1254 984.838 1231.84 1007 1204.5 1007 1177.16 1007 1155 984.838 1155 957.5Z" fill-rule="evenodd"/><path d="M1271 957.5C1271 930.162 1293.16 908 1320.5 908 1347.84 908 1370 930.162 1370 957.5 1370 984.838 1347.84 1007 1320.5 1007 1293.16 1007 1271 984.838 1271 957.5Z" fill-rule="evenodd"/><path d="M1386 957.5C1386 930.162 1408.16 908 1435.5 908 1462.84 908 1485 930.162 1485 957.5 1485 984.838 1462.84 1007 1435.5 1007 1408.16 1007 1386 984.838 1386 957.5Z" fill-rule="evenodd"/><path d="M1502 957.5C1502 930.162 1524.16 908 1551.5 908 1578.84 908 1601 930.162 1601 957.5 1601 984.838 1578.84 1007 1551.5 1007 1524.16 1007 1502 984.838 1502 957.5Z" fill-rule="evenodd"/><path d="M1617 957.5C1617 930.162 1639.16 908 1666.5 908 1693.84 908 1716 930.162 1716 957.5 1716 984.838 1693.84 1007 1666.5 1007 1639.16 1007 1617 984.838 1617 957.5Z" fill-rule="evenodd"/><path d="M1733 957.5C1733 930.162 1755.16 908 1782.5 908 1809.84 908 1832 930.162 1832 957.5 1832 984.838 1809.84 1007 1782.5 1007 1755.16 1007 1733 984.838 1733 957.5Z" fill-rule="evenodd"/><path d="M1848 957.5C1848 930.162 1870.16 908 1897.5 908 1924.84 908 1947 930.162 1947 957.5 1947 984.838 1924.84 1007 1897.5 1007 1870.16 1007 1848 984.838 1848 957.5Z" fill-rule="evenodd"/><path d="M1155 1072.5C1155 1045.16 1177.16 1023 1204.5 1023 1231.84 1023 1254 1045.16 1254 1072.5 1254 1099.84 1231.84 1122 1204.5 1122 1177.16 1122 1155 1099.84 1155 1072.5Z" fill-rule="evenodd"/><path d="M1271 1072.5C1271 1045.16 1293.16 1023 1320.5 1023 1347.84 1023 1370 1045.16 1370 1072.5 1370 1099.84 1347.84 1122 1320.5 1122 1293.16 1122 1271 1099.84 1271 1072.5Z" fill-rule="evenodd"/><path d="M1386 1072.5C1386 1045.16 1408.16 1023 1435.5 1023 1462.84 1023 1485 1045.16 1485 1072.5 1485 1099.84 1462.84 1122 1435.5 1122 1408.16 1122 1386 1099.84 1386 1072.5Z" fill-rule="evenodd"/><path d="M1502 1072.5C1502 1045.16 1524.16 1023 1551.5 1023 1578.84 1023 1601 1045.16 1601 1072.5 1601 1099.84 1578.84 1122 1551.5 1122 1524.16 1122 1502 1099.84 1502 1072.5Z" fill-rule="evenodd"/><path d="M1617 1072.5C1617 1045.16 1639.16 1023 1666.5 1023 1693.84 1023 1716 1045.16 1716 1072.5 1716 1099.84 1693.84 1122 1666.5 1122 1639.16 1122 1617 1099.84 1617 1072.5Z" fill-rule="evenodd"/><path d="M1733 1072.5C1733 1045.16 1755.16 1023 1782.5 1023 1809.84 1023 1832 1045.16 1832 1072.5 1832 1099.84 1809.84 1122 1782.5 1122 1755.16 1122 1733 1099.84 1733 1072.5Z" fill-rule="evenodd"/><path d="M1848 1072.5C1848 1045.16 1870.16 1023 1897.5 1023 1924.84 1023 1947 1045.16 1947 1072.5 1947 1099.84 1924.84 1122 1897.5 1122 1870.16 1122 1848 1099.84 1848 1072.5Z" fill-rule="evenodd"/><path d="M1964 379.5C1964 352.162 1986.16 330 2013.5 330 2040.84 330 2063 352.162 2063 379.5 2063 406.838 2040.84 429 2013.5 429 1986.16 429 1964 406.838 1964 379.5Z" fill-rule="evenodd"/><path d="M2080 379.5C2080 352.162 2102.16 330 2129.5 330 2156.84 330 2179 352.162 2179 379.5 2179 406.838 2156.84 429 2129.5 429 2102.16 429 2080 406.838 2080 379.5Z" fill-rule="evenodd"/><path d="M1964 495.5C1964 468.162 1986.16 446 2013.5 446 2040.84 446 2063 468.162 2063 495.5 2063 522.838 2040.84 545 2013.5 545 1986.16 545 1964 522.838 1964 495.5Z" fill-rule="evenodd"/><path d="M2080 495.5C2080 468.162 2102.16 446 2129.5 446 2156.84 446 2179 468.162 2179 495.5 2179 522.838 2156.84 545 2129.5 545 2102.16 545 2080 522.838 2080 495.5Z" fill-rule="evenodd"/><path d="M1964 610.5C1964 583.162 1986.16 561 2013.5 561 2040.84 561 2063 583.162 2063 610.5 2063 637.838 2040.84 660 2013.5 660 1986.16 660 1964 637.838 1964 610.5Z" fill-rule="evenodd"/><path d="M2080 610.5C2080 583.162 2102.16 561 2129.5 561 2156.84 561 2179 583.162 2179 610.5 2179 637.838 2156.84 660 2129.5 660 2102.16 660 2080 637.838 2080 610.5Z" fill-rule="evenodd"/><path d="M1964 726.5C1964 699.162 1986.16 677 2013.5 677 2040.84 677 2063 699.162 2063 726.5 2063 753.838 2040.84 776 2013.5 776 1986.16 776 1964 753.838 1964 726.5Z" fill-rule="evenodd"/><path d="M2080 726.5C2080 699.162 2102.16 677 2129.5 677 2156.84 677 2179 699.162 2179 726.5 2179 753.838 2156.84 776 2129.5 776 2102.16 776 2080 753.838 2080 726.5Z" fill-rule="evenodd"/><path d="M1964 841.5C1964 814.162 1986.16 792 2013.5 792 2040.84 792 2063 814.162 2063 841.5 2063 868.838 2040.84 891 2013.5 891 1986.16 891 1964 868.838 1964 841.5Z" fill-rule="evenodd"/><path d="M2080 841.5C2080 814.162 2102.16 792 2129.5 792 2156.84 792 2179 814.162 2179 841.5 2179 868.838 2156.84 891 2129.5 891 2102.16 891 2080 868.838 2080 841.5Z" fill-rule="evenodd"/><path d="M1964 957.5C1964 930.162 1986.16 908 2013.5 908 2040.84 908 2063 930.162 2063 957.5 2063 984.838 2040.84 1007 2013.5 1007 1986.16 1007 1964 984.838 1964 957.5Z" fill-rule="evenodd"/><path d="M2080 957.5C2080 930.162 2102.16 908 2129.5 908 2156.84 908 2179 930.162 2179 957.5 2179 984.838 2156.84 1007 2129.5 1007 2102.16 1007 2080 984.838 2080 957.5Z" fill-rule="evenodd"/><path d="M1964 1072.5C1964 1045.16 1986.16 1023 2013.5 1023 2040.84 1023 2063 1045.16 2063 1072.5 2063 1099.84 2040.84 1122 2013.5 1122 1986.16 1122 1964 1099.84 1964 1072.5Z" fill-rule="evenodd"/><path d="M2080 1072.5C2080 1045.16 2102.16 1023 2129.5 1023 2156.84 1023 2179 1045.16 2179 1072.5 2179 1099.84 2156.84 1122 2129.5 1122 2102.16 1122 2080 1099.84 2080 1072.5Z" fill-rule="evenodd"/></g></svg>